<svg xmlns="http://www.w3.org/2000/svg" fill="white" width="24" height="24" enable-background="new 0 0 24 24" viewBox="0 0 24 24"><path d="m4.974 24c-.136 0-.282-.033-.418-.119-.288-.184-.359-.518-.332-.77.041-.3.794-3.132 1.083-4.214-3.331-1.924-5.307-5.102-5.307-8.571 0-5.694 5.383-10.326 12-10.326s12 4.632 12 10.326-5.383 10.326-12 10.326c-.639 0-1.278-.043-1.906-.13-3.803 2.902-4.593 3.347-4.835 3.429-.082.03-.18.049-.285.049zm7.026-23c-6.065 0-11 4.184-11 9.326 0 3.214 1.917 6.161 5.127 7.885.205.11.307.346.247.57-.35 1.301-.842 3.164-1.055 4.018.68-.458 2.362-1.691 4.334-3.198.108-.082.246-.118.38-.097.646.099 1.307.149 1.967.149 6.065 0 11-4.184 11-9.326 0-5.143-4.935-9.327-11-9.327z"/><path d="m6.5 9h-3c-.276 0-.5-.224-.5-.5s.224-.5.5-.5h3c.276 0 .5.224.5.5s-.224.5-.5.5z"/><path d="M5 14c-.276 0-.5-.224-.5-.5v-5c0-.276.224-.5.5-.5s.5.224.5.5v5c0 .276-.224.5-.5.5zM13.5 14c-.276 0-.5-.224-.5-.5v-5c0-.276.224-.5.5-.5s.5.224.5.5v5c0 .276-.224.5-.5.5zM7.5 14c-.062 0-.125-.011-.186-.036-.257-.103-.381-.394-.278-.65l2-5c.102-.257.393-.383.649-.279.257.103.381.394.278.65l-2 5c-.077.196-.265.315-.463.315z"/><path d="m11.5 14c-.198 0-.386-.119-.464-.314l-2-5c-.103-.256.021-.547.278-.65.254-.104.547.022.649.279l2 5c.103.256-.021.547-.278.65-.06.024-.123.035-.185.035z"/><path d="M10.756 12.5h-2.512c-.276 0-.5-.224-.5-.5s.224-.5.5-.5h2.512c.276 0 .5.224.5.5s-.224.5-.5.5zM15.5 14h-2c-.276 0-.5-.224-.5-.5s.224-.5.5-.5h2c.276 0 .5.224.5.5s-.224.5-.5.5zM17.5 14c-.276 0-.5-.224-.5-.5v-5c0-.276.224-.5.5-.5s.5.224.5.5v5c0 .276-.224.5-.5.5z"/><path d="m17.5 12c-.128 0-.256-.049-.354-.146-.195-.195-.195-.512 0-.707l3-3c.195-.195.512-.195.707 0s.195.512 0 .707l-3 3c-.097.097-.225.146-.353.146z"/><path d="m20.5 14c-.141 0-.28-.059-.379-.174l-2.31-2.69c-.181-.209-.156-.525.053-.705.211-.179.526-.155.705.054l2.31 2.69c.181.209.156.525-.053.705-.095.08-.211.12-.326.12z"/></svg>